<?xml version="1.0" encoding="utf-8"?>
<!-- Generator: Adobe Illustrator 22.0.0, SVG Export Plug-In . SVG Version: 6.00 Build 0)  -->
<svg version="1.1" id="Capa_1" xmlns="http://www.w3.org/2000/svg" xmlns:xlink="http://www.w3.org/1999/xlink" x="0px" y="0px"
	 viewBox="0 0 100 50" style="enable-background:new 0 0 100 50;" xml:space="preserve">
<style type="text/css">
	.st0{fill:#FFFFFF;}
</style>
<g>
	<g>
		<g>
			<path class="st0" d="M22.7,25.5h-1.1h-1.2l0.9-0.9l1.6-1.6l-2.7-1.5l-4.6-2.6c-0.7-0.4-1.5,0.1-1.5,0.9V25v1.4
				c0.8,0.1,1.7,0.2,2.7,0.2C19.9,26.6,21.8,26,22.7,25.5z"/>
		</g>
		<g>
			<path class="st0" d="M14.2,28.9v1.4c0,0.8,0.8,1.3,1.5,0.9l3.8-2.2c-0.9,0.1-1.7,0.2-2.6,0.2C16,29.1,15.1,29,14.2,28.9z"/>
		</g>
		<g>
			<path class="st0" d="M24.5,22.1l-1.2,1.2L21.6,25h2.2c0,0.8-2.7,2.1-6.9,2.1c-1,0-1.9-0.1-2.7-0.2C11.6,26.5,10,25.6,10,25
				s1.4-1.4,3.6-1.8v-1.5c-2.8,0.5-5.1,1.6-5.1,3.3c0,1.8,2.5,3,5.6,3.4c0.9,0.1,1.8,0.2,2.7,0.2c1.3,0,2.6-0.1,3.8-0.4
				c2.4-0.5,4.2-1.4,4.5-2.9c0-0.1,0-0.2,0-0.4l0,0h2.1L24.5,22.1z"/>
		</g>
	</g>
	<g>
		<path class="st0" d="M35.6,29L35.6,29h-8c-0.1,0-0.1,0-0.1-0.1v-2.5c0,0,0-0.1,0.1-0.1c1.9,0,3.2,0,3.8,0
			c-0.3-0.4-1.5-1.6-3.6-3.7c0,0-0.1-0.1-0.4-0.4v-2.5c0-0.1,0-0.1,0.1-0.1h7.9c0.1,0,0.1,0,0.1,0.1v2.5c0,0.1,0,0.1-0.1,0.1h-3.8
			l0,0c1.9,1.9,3.2,3.3,3.9,4l0,0v0.9c0,0.1,0,0.3,0,0.4v1C35.7,28.8,35.7,28.9,35.6,29L35.6,29L35.6,29L35.6,29z"/>
		<path class="st0" d="M39.6,22.4L39.6,22.4h-3.1c-0.1,0-0.1,0-0.1-0.1v-2.5c0-0.1,0-0.1,0.1-0.1h9.2c0,0,0.1,0,0.1,0.1v2.5
			c0,0.1,0,0.1-0.1,0.1h-3.2V29h-2.9V22.4z"/>
		<path class="st0" d="M55.8,19.8L55.8,19.8V29c0,0,0,0.1-0.1,0.1h-2.6C53,29,53,29,53,29v-1.9h-3.8V29c0,0.1,0,0.1-0.1,0.1h-2.7
			v-7.3l2.1-2c0,0,0,0,0.1,0l0,0H55.8L55.8,19.8z M49.2,22.4v2h3.6H53v-0.9c0-0.1,0-0.2,0-0.2v-0.2v-0.6L49.2,22.4L49.2,22.4z"/>
		<path class="st0" d="M56.6,19.7h7.1c0.1,0,0.8,0.7,2.1,2.1v3.8L64.5,27c0.1,0.1,0.6,0.8,1.6,2H66h-3.3c-0.6-0.8-0.9-1.3-0.9-1.3
			h-2.6V29c0,0.1,0,0.1-0.1,0.1h-2.6c0,0-0.1,0-0.1-0.1v-9.1C56.4,19.8,56.5,19.7,56.6,19.7z M59.2,22.4v2.5c0,0.1,0,0.1,0.1,0.1H63
			v-2.7h-3.6L59.2,22.4z"/>
		<path class="st0" d="M70,22.4L70,22.4h-3.1c-0.1,0-0.1,0-0.1-0.1v-2.5c0-0.1,0-0.1,0.1-0.1H76c0,0,0.1,0,0.1,0.1v2.5
			c0,0.1,0,0.1-0.1,0.1h-3.2V29H70V22.4z"/>
		<path class="st0" d="M81.1,29h-1.3c-0.1,0-0.1,0-0.1-0.1v-9.2c0-0.1,0-0.1,0.1-0.1h2.8V29H81.1L81.1,29z"/>
		<path class="st0" d="M85.3,29L85.3,29h-2c-0.1,0-0.1,0-0.1-0.1v-9.2c0-0.1,0-0.1,0.1-0.1h9.2c0.1,0,0.1,0,0.1,0.1v2.6
			c0,0.1,0,0.1-0.1,0.1H86v1.3h5.1c0.1,0,0.1,0.1,0.1,0.2v0.7c0,0.1,0,0.2,0,0.2V25v1.2c0,0-0.1,0.1-0.2,0.2h-5V28
			c0,0.1,0,0.3,0,0.4v0.2c0,0.1,0,0.2,0,0.4l0,0l0,0l0,0l0,0c0,0,0,0-0.1,0h-0.4l0,0l0,0H85.3z"/>
	</g>
</g>
</svg>
